#!OML:ASF H:\IndianDance\Patient Classification 1\Patient 1\Session 1\dancer.ASF
:FULLY-SPECIFIED
:DEGREES
4943
root -6.13634 15.4431 -2.3434 1447.14 -188.015 -363.39
lowerback 7.34248 -0.0549467 -0.0447358
upperback -5.65652 1.3979 7.76687
thorax -10.4709 1.36124 8.23521
lowerneck -9.57885 -17.4607 -7.93363
upperneck 2.793 -23.6439 23.9893
head 6.43739 -10.2498 6.15265
rclavicle 2.45996e-014 6.99722e-014
rhumerus 5.0392 13.459 -29.02
rradius 45.827
rwrist -46.9245
rhand -27.9833 0.131601
rfingers 7.12502
rthumb -1.36975 -29.8437
lclavicle 2.45996e-014 6.99722e-014
lhumerus -25.9918 -41.5121 15.269
lradius 64.4294
lwrist 9.53537
lhand -12.976 0.97749
lfingers 7.12502
lthumb 13.1163 -329.455
rfemur -45.5537 -19.2429 11.8968
rtibia 60.2636
rfoot 8.23718 1.34833
rtoes -12.6764
lfemur -26.2802 18.4684 -12.6344
ltibia 58.8929
lfoot -5.61717 7.11525
ltoes 0.601877
4944
root -6.02982 15.4266 -2.38082 1447.41 -187.953 -363.435
lowerback 7.27181 -0.0779386 -0.179733
upperback -5.7118 1.33053 7.68117
thorax -10.4792 1.33065 8.22983
lowerneck -9.40955 -17.6431 -8.22683
upperneck 2.97534 -23.9353 24.2454
head 6.58778 -10.373 6.22339
rclavicle -2.83268e-015 1.59028e-013
rhumerus 4.83309 12.416 -29.5711
rradius 44.3055
rwrist -45.614
rhand -26.9427 0.208121
rfingers 7.12502
rthumb -0.364747 -29.7713
lclavicle -2.83268e-015 1.59028e-013
lhumerus -25.1002 -41.7691 14.1104
lradius 62.7957
lwrist 9.68628
lhand -12.3982 1.13789
lfingers 7.12502
lthumb 13.6732 -329.331
rfemur -44.94 -19.1547 12.4131
rtibia 59.5066
rfoot 6.25703 1.2768
rtoes -12.93
lfemur -27.8795 19.6541 -12.8291
ltibia 62.6691
lfoot -6.11379 6.4628
ltoes 1.05164
4945
root -5.92382 15.4022 -2.41576 1447.56 -187.944 -363.482
lowerback 7.3353 -0.0722723 -0.367415
upperback -5.74985 1.2924 7.57917
thorax -10.5541 1.31635 8.2347
lowerneck -9.15331 -17.794 -8.50684
upperneck 3.09668 -24.1714 24.4385
head 6.68547 -10.4873 6.29083
rclavicle -2.67862e-014 5.725e-014
rhumerus 4.62462 11.4494 -30.1102
rradius 43.0378
rwrist -43.8987
rhand -25.9865 0.4406
rfingers 7.12502
rthumb 0.558744 -29.5384
lclavicle -2.67862e-014 5.725e-014
lhumerus -24.1942 -41.9886 12.8903
lradius 61.3044
lwrist 9.77405
lhand -11.9609 1.22451
lfingers 7.12502
lthumb 14.0947 -329.273
rfemur -44.3194 -19.168 12.9683
rtibia 59.0418
rfoot 3.95894 1.00531
rtoes -12.8819
lfemur -29.3593 20.7708 -13.0154
ltibia 66.5298
lfoot -6.68341 5.58474
ltoes 0.732249
4946
root -5.81855 15.3718 -2.44865 1447.6 -188.004 -363.504
lowerback 7.53248 -0.0381222 -0.593988
upperback -5.76683 1.28733 7.47609
thorax -10.6921 1.32092 8.2582
lowerneck -8.82569 -17.9099 -8.7625
upperneck 3.16795 -24.35 24.5679
head 6.73364 -10.5894 6.35295
rclavicle 1.3418e-014 3.18055e-014
rhumerus 4.45057 10.5702 -30.643
rradius 41.9927
rwrist -42.1676
rhand -25.0566 0.6479
rfingers 7.12502
rthumb 1.45689 -29.3269
lclavicle 1.3418e-014 3.18055e-014
lhumerus -23.3941 -42.1029 11.6817
lradius 60.0131
lwrist 9.77314
lhand -11.6026 1.27722
lfingers 7.12502
lthumb 14.4399 -329.245
rfemur -43.6888 -19.2194 13.5461
rtibia 58.7527
rfoot 1.64264 0.533106
rtoes -12.9038
lfemur -30.6882 21.8224 -13.1552
ltibia 70.3909
lfoot -7.32404 4.55138
ltoes 0.218433
4947
root -5.71401 15.3369 -2.48023 1447.54 -188.136 -363.475
lowerback 7.8602 0.0165348 -0.835759
upperback -5.75314 1.30837 7.38592
thorax -10.8801 1.34016 8.30273
lowerneck -8.46094 -17.9854 -8.9829
upperneck 3.20861 -24.4671 24.6418
head 6.74281 -10.672 6.40911
rclavicle 7.15625e-015 -1.65389e-013
rhumerus 4.35058 9.82886 -31.1616
rradius 41.1584
rwrist -40.7846
rhand -24.1699 0.723901
rfingers 7.12502
rthumb 2.31331 -29.2433
lclavicle 7.15625e-015 -1.65389e-013
lhumerus -22.7942 -42.0595 10.5514
lradius 58.9361
lwrist 9.67213
lhand -11.2919 1.29933
lfingers 7.12502
lthumb 14.7392 -329.245
rfemur -43.0502 -19.2338 14.1208
rtibia 58.5489
rfoot -0.4131 0.065499
rtoes -12.0038
lfemur -31.8354 22.8316 -13.2285
ltibia 74.1744
lfoot -8.00985 3.5093
ltoes -0.713213
4948
root -5.6107 15.2994 -2.51084 1447.37 -188.343 -363.366
lowerback 8.3053 0.0891309 -1.0594
upperback -5.70055 1.35835 7.32351
thorax -11.1014 1.37404 8.36405
lowerneck -8.09109 -18.0245 -9.18222
upperneck 3.24273 -24.5327 24.6799
head 6.73229 -10.7339 6.46251
rclavicle 1.59773e-014 -1.145e-013
rhumerus 4.34328 9.23486 -31.6633
rradius 40.5064
rwrist -39.9079
rhand -23.3293 0.610183
rfingers 7.12502
rthumb 3.12505 -29.3467
lclavicle 1.59773e-014 -1.145e-013
lhumerus -22.4548 -41.8046 9.57122
lradius 58.074
lwrist 9.47657
lhand -11.032 1.31133
lfingers 7.12502
lthumb 14.9897 -329.251
rfemur -42.3989 -19.1717 14.6983
rtibia 58.3913
rfoot -2.28561 -0.352876
rtoes -12.4663
lfemur -32.7784 23.8033 -13.197
ltibia 77.8152
lfoot -8.75202 2.52801
ltoes -1.60265
4949
root -5.50931 15.259 -2.54053 1447.11 -188.631 -363.138
lowerback 8.84771 0.178125 -1.2139
upperback -5.60461 1.44489 7.29891
thorax -11.339 1.42318 8.42085
lowerneck -7.74347 -18.0349 -9.37136
upperneck 3.28915 -24.5613 24.704
head 6.71978 -10.7762 6.51593
rclavicle -2.97432e-014 1.84472e-013
rhumerus 4.42477 8.78626 -32.1425
rradius 40.0075
rwrist -39.5496
rhand -22.5351 0.336981
rfingers 7.12502
rthumb 3.89203 -29.6072
lclavicle -2.97432e-014 1.84472e-013
lhumerus -22.3869 -41.3201 8.77904
lradius 57.4126
lwrist 9.22536
lhand -10.7739 1.34284
lfingers 7.12502
lthumb 15.2382 -329.238
rfemur -41.7193 -19.002 15.3098
rtibia 58.2774
rfoot -3.93402 -0.621478
rtoes -12.7635
lfemur -33.5196 24.7733 -13.0193
ltibia 81.2729
lfoot -9.54194 1.66187
ltoes -2.54493
